<?xml version="1.0" encoding="utf-8"?>
<!-- Generator: Adobe Illustrator 18.1.1, SVG Export Plug-In . SVG Version: 6.00 Build 0)  -->
<svg version="1.1" id="Layer_1" xmlns="http://www.w3.org/2000/svg" xmlns:xlink="http://www.w3.org/1999/xlink" x="0px" y="0px"
	 viewBox="0 0 100 100" enable-background="new 0 0 100 100" xml:space="preserve">
<path fill-rule="evenodd" clip-rule="evenodd" fill="#FFFFFF" d="M50,3.2c-26.5,0-48,21.5-48,48c0,21.2,13.8,39.2,32.8,45.5
	c2.4,0.4,3.3-1,3.3-2.3c0-1.1,0-4.2-0.1-8.2c-13.4,2.9-16.2-6.4-16.2-6.4c-2.2-5.5-5.3-7-5.3-7c-4.4-3,0.3-2.9,0.3-2.9
	c4.8,0.3,7.4,4.9,7.4,4.9c4.3,7.3,11.2,5.2,14,4c0.4-3.1,1.7-5.2,3-6.4c-10.7-1.2-21.9-5.3-21.9-23.7c0-5.2,1.9-9.5,4.9-12.9
	c-0.5-1.2-2.1-6.1,0.5-12.7c0,0,4-1.3,13.2,4.9c3.8-1.1,7.9-1.6,12-1.6c4.1,0,8.2,0.6,12,1.6c9.2-6.2,13.2-4.9,13.2-4.9
	c2.6,6.6,1,11.5,0.5,12.7c3.1,3.4,4.9,7.6,4.9,12.9c0,18.4-11.2,22.5-21.9,23.7c1.7,1.5,3.3,4.4,3.3,8.9c0,6.4-0.1,11.6-0.1,13.2
	c0,1.3,0.9,2.8,3.3,2.3C84.3,90.4,98,72.4,98,51.2C98,24.7,76.5,3.2,50,3.2z"/>
</svg>
