<!DOCTYPE svg PUBLIC "-//W3C//DTD SVG 1.1//EN" "http://www.w3.org/Graphics/SVG/1.1/DTD/svg11.dtd">
<svg xmlns="http://www.w3.org/2000/svg" xmlns:xlink="http://www.w3.org/1999/xlink" version="1.1" id="Layer_1" x="0px" y="0px" width="400px" height="400px" viewBox="0 0 400 400" enable-background="new 0 0 400 400" xml:space="preserve">
	<rect fill='#e94c43' x='0' y='0' width='400' height='400'></rect>
	<path fill="#010101" stroke="#FFFFFF" stroke-width="9" stroke-linecap="round" stroke-linejoin="round" stroke-miterlimit="10" d="  M129.498,229.582c-0.11,0.543-0.424,1.619-0.536,2.715c-0.771,7.582-1.207,15.209-2.314,22.74  c-1.512,10.285-3.227,20.562-5.399,30.727c-2.558,11.969-5.592,23.838-8.625,35.697c-1.859,7.273-4.073,14.457-6.185,21.664  c-1.231,4.199-2.503,8.391-3.933,12.525c-0.271,0.783-1.37,1.275-2.087,1.906c-0.099-0.855-0.476-1.791-0.255-2.555  c2.291-7.938,4.71-15.836,7.03-23.768c2.393-8.18,4.75-16.371,7.058-24.576c1.496-5.312,3.064-10.621,4.255-16.01  c1.169-5.283,1.865-10.676,2.858-16.002c0.22-1.182,1.01-2.262,1.201-3.439c0.44-2.725,0.636-5.482,1.006-8.221  c0.175-1.285,0.543-2.547,0.787-3.824c0.15-0.787,0.252-1.588,0.335-2.387c0.151-1.445,0.249-2.898,0.409-4.346  c0.49-4.432,0.984-8.861,1.507-13.289c0.202-1.705,0.675-3.4,0.667-5.102c-0.006-1.277-0.614-2.547-0.892-3.832  c-0.16-0.742-0.423-2.111-0.253-2.176c2.618-0.994,1.935-3.314,1.93-5.098c-0.026-9.158-0.051-18.324-0.468-27.473  c-0.209-4.596-1.354-9.141-1.889-13.731c-0.686-5.886-1.111-11.803-1.786-17.69c-0.63-5.494-1.704-10.947-2.119-16.454  c-0.912-12.104-5.352-23.11-10.109-34.033c-2.703-6.208-5.544-12.357-8.408-18.494c-0.506-1.084-1.403-1.994-2.164-2.95  c-2.177-2.735-4.377-5.454-6.813-8.484c4.125-0.337,6.547,0.74,7.84,4.302c0.703,1.935,2.5,3.443,3.474,5.315  c1.807,3.471,3.442,7.038,5.021,10.621c1.748,3.965,3.509,7.937,4.991,12.005c4.849,13.305,8.199,26.909,9.341,41.122  c1.138,14.169,3.463,28.243,4.597,42.411c0.665,8.306,0.018,16.716-0.038,25.082c-0.003,0.492,0,0.984,0,1.918  c1.958-1.17,3.697-2.176,5.403-3.234c6.523-4.045,13.081-8.037,19.531-12.195c3.122-2.014,6.031-4.354,9.04-6.545  c3.455-2.514,6.964-4.958,10.351-7.561c1.879-1.444,3.51-3.207,5.334-4.729c8.358-6.973,16.609-14.051,23.749-22.323  c5.396-6.25,11.439-12.032,16.178-18.742c7.482-10.602,15.039-21.344,18.477-34.149c1.08-4.034,1.229-8.322,1.75-12.501  c0.313-2.534,0.781-5.088,0.725-7.623c-0.15-6.404,0.23-12.966-1.061-19.161c-1.732-8.326-5.709-15.688-12.918-21.075  c-5.529-4.135-11.525-7.09-18.062-8.906c-3.053-0.848-6.363-0.888-9.568-1.027c-4.354-0.188-8.766-0.55-13.067-0.07  c-7.7,0.857-15.412,1.932-22.981,3.56c-11.349,2.44-21.644,7.916-32.339,12.211c-3.685,1.48-7.007,3.844-10.543,5.711  c-3.99,2.106-8.109,3.977-12.034,6.195c-3.208,1.812-6.195,4.011-9.314,5.986c-1.798,1.138-3.789,2.003-5.472,3.282  c-4.214,3.202-8.279,6.6-12.463,9.843c-0.749,0.581-1.93,0.615-2.655,1.213c-2.563,2.115-4.958,4.435-7.536,6.532  c-1.155,0.939-2.556,1.612-3.929,2.216c-0.274,0.121-1.381-0.822-1.334-0.927c0.615-1.361,1.041-3.132,2.142-3.899  c7.704-5.366,15.534-10.551,23.363-15.734c6.951-4.603,13.541-9.729,21.236-13.218c6.897-3.126,13.41-7.093,20.266-10.321  c4.896-2.305,10.095-3.964,15.127-5.989c2.487-1,4.852-2.315,7.361-3.245c9.518-3.524,19.533-4.815,29.502-6.179  c2.891-0.396,5.908,0.164,8.869,0.226c4.546,0.095,9.143-0.252,13.624,0.329c3.546,0.46,7.038,1.803,10.394,3.162  c5.809,2.355,10.914,5.978,15.227,10.455c5.766,5.99,9.367,13.277,9.939,21.636c0.486,7.077,0.615,14.216,0.281,21.298  c-0.26,5.412-0.736,11.033-2.455,16.108c-2.705,7.977-5.396,16.092-10.734,22.935c-1.848,2.364-2.883,5.381-4.811,7.657  c-8.545,10.089-17.035,20.244-26.014,29.943c-10.25,11.072-21.907,20.645-34.185,29.397c-7.045,5.021-14.416,9.586-21.631,14.369  c-0.441,0.293-0.807,0.698-1.394,1.215c3.214-0.383,6.161-0.51,9.001-1.123c5.43-1.176,10.708,0.125,16.042,0.578  c0.99,0.084,1.979,0.235,2.969,0.233c11.664-0.014,22.04,3.422,31.704,10.17c6.761,4.722,13.135,9.781,18.694,15.757  c3.146,3.383,5.809,7.424,7.846,11.582c2.779,5.674,6.271,11.01,7.91,17.282c1.771,6.777,3.926,13.488,6.441,20.024  c1.572,4.084,3.985,7.878,6.285,11.642c1.971,3.226,4.121,6.383,6.531,9.287c5.238,6.303,12.156,10.18,19.691,13.153  c4.064,1.604,8.188,1.562,12.412,1.386c2.387-0.103,4.795,0.153,7.186,0.351c12.508,1.024,21.502-4.83,28.674-14.437  c3.68-4.929,6.316-10.255,8.471-16.07c2.207-5.969,3.062-11.922,3.299-18.127c0.105-2.774,0.674-5.543,0.633-8.31  c-0.051-3.491-0.48-6.979-0.805-10.467c-0.195-2.11-0.342-4.244-0.773-6.312c-1.814-8.638-5.031-16.578-11.609-22.817  c-0.818-0.777-1.357-1.854-2.014-2.8c-2.688-3.868-6-6.938-10.449-8.75c-1.666-0.678-3.148-1.813-4.693-2.776  c-6.639-4.142-13.91-6.438-21.455-3.992c-7.125,2.312-13.865,5.869-16.227,14.078c-1.453,5.056-3.523,10.004-4.33,15.153  c-0.811,5.185-1.264,10.724-0.307,15.812c1.283,6.812,2.656,13.85,6.422,19.911c2.301,3.705,5.111,6.99,9.906,7.718  c3.062,0.463,6.146,1.942,9.105,1.672c3.928-0.356,8.184-1.252,11.48-3.261c3.318-2.018,5.828-5.524,8.352-8.655  c4.822-5.983,3.809-17.17-1.287-22.521c-2.479-2.601-4.066-6.172-7.758-7.386c-2.475-0.812-5.07-1.444-7.654-1.659  c-2.291-0.19-5.248,2.978-5.877,5.664c-0.148,0.639-0.291,1.28-0.479,1.911c-0.756,2.589-0.04,3.939,2.609,4.554  c2.541,0.586,5.117,1.022,8.219,1.633c-0.82,0.644-1.318,1.33-1.938,1.47c-3.58,0.81-7.035,0.153-9.863-2.065  c-1.047-0.82-1.881-2.988-1.574-4.24c0.729-2.983,1.934-5.932,3.432-8.627c1.443-2.601,5.412-3.778,8.311-2.924  c2.217,0.653,4.52,1.217,6.543,2.276c1.836,0.961,3.752,2.254,4.924,3.904c2.469,3.473,4.855,7.104,6.578,10.979  c2.844,6.396,1.195,12.421-2.172,18.354c-2.358,4.156-6.121,6.797-9.315,10.033c-1.036,1.055-3.021,1.16-4.56,1.734  c-5.893,2.197-11.483,2.004-17.561-0.27c-9.463-3.539-13.291-10.701-15.086-19.748c-0.129-0.648-0.242-1.326-0.525-1.912  c-3.592-7.387-2.154-15.219-2.059-22.93c0.09-7.414,2.99-14.104,5.602-20.83c0.621-1.604,2.08-2.971,3.381-4.205  c5.262-4.996,11.164-8.879,18.703-9.08c2.604-0.07,5.281,0.41,7.834,1.02c3.084,0.738,6.191,1.357,8.902,3.414  c2.521,1.91,5.684,2.971,8.242,4.842c2.357,1.727,4.393,3.939,6.387,6.105c2.912,3.156,6.078,6.197,8.367,9.779  c2.369,3.711,3.938,7.957,5.646,12.059c2.961,7.123,2.166,14.812,2.859,22.24c0.885,9.459-0.371,18.799-3.115,27.994  c-2.285,7.662-6.059,14.387-10.989,20.527c-8.12,10.109-18.722,14.139-31.541,12.539c-1.306-0.162-2.676-0.342-3.948-0.121  c-5.951,1.02-11.33-0.779-16.509-3.312c-6.381-3.119-12.803-6.299-17.28-12.096c-2.252-2.916-3.863-6.354-6.269-9.115  c-5.834-6.703-7.771-15.211-11.065-23.064c-1.642-3.91-2.183-8.27-3.589-12.297c-0.959-2.748-2.538-5.283-3.866-7.9  c-1.983-3.904-3.666-8.016-6.08-11.637c-2.242-3.365-5.078-6.408-8.008-9.223c-3.412-3.277-7.104-6.291-10.863-9.174  c-6.484-4.971-13.703-8.67-21.591-10.764c-3.934-1.045-8.096-1.271-12.169-1.734c-3.933-0.449-7.879-0.83-11.83-1.064  c-8.614-0.512-16.76,1.188-24.371,5.363C132.201,229.379,131.079,229.307,129.498,229.582z"/>
</svg>
